<svg xmlns="http://www.w3.org/2000/svg" viewBox="0 0 1260 380" fill="none">
  <title>OperaPyme logo</title>
  <desc>Editable SVG reconstruction of the OperaPyme logo with vector mark, wordmark, and tagline.</desc>
  <defs>
    <linearGradient id="operapyme-blue" x1="42" y1="88" x2="274" y2="312" gradientUnits="userSpaceOnUse">
      <stop offset="0" stop-color="#223A86"/>
      <stop offset="1" stop-color="#0E1D57"/>
    </linearGradient>
    <linearGradient id="operapyme-teal" x1="94" y1="86" x2="305" y2="302" gradientUnits="userSpaceOnUse">
      <stop offset="0" stop-color="#19C5BE"/>
      <stop offset="1" stop-color="#1780BC"/>
    </linearGradient>
    <clipPath id="operapyme-left-overlap">
      <rect x="111" y="74" width="96" height="228" rx="48"/>
    </clipPath>
    <clipPath id="operapyme-right-overlap">
      <rect x="205" y="74" width="96" height="228" rx="48"/>
    </clipPath>
  </defs>

  <g id="logo-mark" stroke-linecap="round" stroke-linejoin="round">
    <circle cx="110" cy="186" r="55" stroke="url(#operapyme-blue)" stroke-width="34"/>
    <circle cx="205" cy="186" r="55" stroke="url(#operapyme-teal)" stroke-width="34"/>
    <circle cx="110" cy="186" r="55" stroke="url(#operapyme-teal)" stroke-width="34" clip-path="url(#operapyme-left-overlap)" opacity="0.95"/>
    <circle cx="205" cy="186" r="55" stroke="url(#operapyme-blue)" stroke-width="34" clip-path="url(#operapyme-right-overlap)" opacity="0.72"/>
    <path d="M157 236V332" stroke="url(#operapyme-blue)" stroke-width="34"/>
  </g>

  <g id="logo-wordmark" transform="translate(-40 0)">
    <path d="M811 357Q811 273 782 203.5Q753 134 701.5 84.5Q650 35 579 8Q508 -19 425 -19Q342 -19 271.5 8Q201 35 149.5 84.5Q98 134 69 203.5Q40 273 40 357Q40 442 69 510.5Q98 579 149.5 627Q201 675 271.5 701Q342 727 425 727Q508 727 579 701Q650 675 701.5 627Q753 579 782 510.5Q811 442 811 357ZM628 357Q628 403 613 443Q598 483 571.5 511.5Q545 540 507.5 556.5Q470 573 425 573Q380 573 343 556.5Q306 540 279 511.5Q252 483 237.5 443Q223 403 223 357Q223 309 238 268.5Q253 228 279.5 199Q306 170 343 153.5Q380 137 425 137Q470 137 507 153.5Q544 170 571 199Q598 228 613 268.5Q628 309 628 357Z" transform="translate(400.00 188.00) scale(0.134000 -0.134000)" fill="#16245D"/>
    <path d="M618 251Q618 199 602 151Q586 103 555.5 66.5Q525 30 481 8Q437 -14 381 -14Q335 -14 294 4.5Q253 23 230 55L228 55L228 -240L64 -240L64 498L220 498L220 437L223 437Q246 467 286.5 489.5Q327 512 382 512Q436 512 480 491Q524 470 554.5 434Q585 398 601.5 350.5Q618 303 618 251ZM459 251Q459 275 451.5 298Q444 321 429.5 338.5Q415 356 393 367Q371 378 342 378Q314 378 292 367Q270 356 254.5 338Q239 320 230.5 297Q222 274 222 250Q222 226 230.5 203Q239 180 254.5 162Q270 144 292 133Q314 122 342 122Q371 122 393 133Q415 144 429.5 162Q444 180 451.5 203.5Q459 227 459 251Z" transform="translate(514.03 188.00) scale(0.134000 -0.134000)" fill="#16245D"/>
    <path d="M407 306Q407 345 382.5 373Q358 401 309 401Q285 401 265 393.5Q245 386 230 373Q215 360 206 342.5Q197 325 196 306ZM558 243Q558 233 558 223Q558 213 557 204L196 204Q198 183 208.5 166Q219 149 235.5 136.5Q252 124 272.5 117Q293 110 315 110Q354 110 381 124.5Q408 139 425 162L539 90Q504 39 446.5 11.5Q389 -16 313 -16Q257 -16 207 1.5Q157 19 119.5 52.5Q82 86 60.5 135Q39 184 39 247Q39 308 60 357.5Q81 407 117 441.5Q153 476 202 495Q251 514 308 514Q363 514 409 495.5Q455 477 488 442Q521 407 539.5 357Q558 307 558 243Z" transform="translate(602.07 188.00) scale(0.134000 -0.134000)" fill="#16245D"/>
    <path d="M387 364Q376 367 365.5 368Q355 369 345 369Q312 369 289.5 357Q267 345 253.5 328Q240 311 234 291Q228 271 228 256L228 0L64 0L64 498L222 498L222 426L224 426Q243 464 278 488Q313 512 359 512Q369 512 378.5 511Q388 510 394 508Z" transform="translate(681.94 188.00) scale(0.134000 -0.134000)" fill="#16245D"/>
    <path d="M358 217L337 217Q310 217 282.5 214.5Q255 212 233.5 205Q212 198 198 184.5Q184 171 184 149Q184 135 190.5 125Q197 115 207 109Q217 103 230 100.5Q243 98 255 98Q305 98 331.5 125.5Q358 153 358 200ZM57 430Q101 472 159.5 493Q218 514 279 514Q342 514 385.5 498.5Q429 483 456 450.5Q483 418 495.5 368.5Q508 319 508 251L508 0L358 0L358 53L355 53Q336 22 297.5 5Q259 -12 214 -12Q184 -12 152 -4Q120 4 93.5 22Q67 40 50 70Q33 100 33 144Q33 198 62.5 231Q92 264 138.5 282Q185 300 242 306Q299 312 353 312L353 320Q353 357 327 374.5Q301 392 263 392Q228 392 195.5 377Q163 362 140 341Z" transform="translate(732.86 188.00) scale(0.134000 -0.134000)" fill="#16245D"/>
    <path d="M610 490Q610 428 587 385.5Q564 343 525 317Q486 291 435 279Q384 267 329 267L244 267L244 0L73 0L73 708L333 708Q391 708 441.5 696.5Q492 685 529.5 659.5Q567 634 588.5 592.5Q610 551 610 490ZM439 489Q439 514 429 530Q419 546 402 555Q385 564 363.5 567Q342 570 319 570L244 570L244 403L316 403Q340 403 362 407Q384 411 401.5 421Q419 431 429 447.5Q439 464 439 489Z" transform="translate(807.00 188.00) scale(0.134000 -0.134000)" fill="#17B8B2"/>
    <path d="M345 -75Q330 -114 311.5 -144.5Q293 -175 267.5 -196.5Q242 -218 207.5 -229Q173 -240 126 -240Q103 -240 78.5 -237Q54 -234 36 -229L54 -91Q66 -95 80.5 -97.5Q95 -100 107 -100Q145 -100 162 -82.5Q179 -65 191 -33L207 8L-1 498L181 498L292 178L295 178L394 498L568 498Z" transform="translate(887.13 188.00) scale(0.134000 -0.134000)" fill="#17B8B2"/>
    <path d="M700 0L700 272Q700 293 697 312.5Q694 332 686 346Q678 360 664.5 368.5Q651 377 629 377Q608 377 592.5 368Q577 359 566.5 344Q556 329 551 309.5Q546 290 546 269L546 0L382 0L382 284Q382 327 365 352Q348 377 311 377Q272 377 250.5 346Q229 315 229 270L229 0L64 0L64 498L223 498L223 429L225 429Q234 445 247.5 460Q261 475 280 486.5Q299 498 322.5 505Q346 512 374 512Q428 512 465.5 490Q503 468 524 427Q549 466 588 489Q627 512 683 512Q734 512 768.5 493.5Q803 475 824 445.5Q845 416 854.5 379.5Q864 343 864 308L864 0Z" transform="translate(963.11 188.00) scale(0.134000 -0.134000)" fill="#17B8B2"/>
    <path d="M407 306Q407 345 382.5 373Q358 401 309 401Q285 401 265 393.5Q245 386 230 373Q215 360 206 342.5Q197 325 196 306ZM558 243Q558 233 558 223Q558 213 557 204L196 204Q198 183 208.5 166Q219 149 235.5 136.5Q252 124 272.5 117Q293 110 315 110Q354 110 381 124.5Q408 139 425 162L539 90Q504 39 446.5 11.5Q389 -16 313 -16Q257 -16 207 1.5Q157 19 119.5 52.5Q82 86 60.5 135Q39 184 39 247Q39 308 60 357.5Q81 407 117 441.5Q153 476 202 495Q251 514 308 514Q363 514 409 495.5Q455 477 488 442Q521 407 539.5 357Q558 307 558 243Z" transform="translate(1086.93 188.00) scale(0.134000 -0.134000)" fill="#17B8B2"/>
  </g>

  <g id="logo-tagline" transform="translate(-40 0)">
    <path d="M438 577Q417 606 381 624.5Q345 643 300 643Q276 643 251.5 636.5Q227 630 207 615.5Q187 601 174.5 579.5Q162 558 162 528Q162 499 173.5 479.5Q185 460 204.5 446.5Q224 433 250.5 423.5Q277 414 307 404Q343 393 380 379Q417 365 447 342Q477 319 496 284.5Q515 250 515 197Q515 142 494.5 101.5Q474 61 440 34.5Q406 8 361.5 -5Q317 -18 270 -18Q203 -18 140.5 8Q78 34 37 85L114 150Q139 113 181 90Q223 67 272 67Q297 67 322 74Q347 81 367.5 96Q388 111 401 133.5Q414 156 414 188Q414 220 400.5 241.5Q387 263 364 278Q341 293 310.5 303.5Q280 314 246 325Q212 335 179 349.5Q146 364 120 386.5Q94 409 78 442Q62 475 62 524Q62 577 83.5 615Q105 653 139.5 678Q174 703 217.5 714.5Q261 726 305 726Q367 726 421 704Q475 682 508 645Z" transform="translate(402.00 270.00) scale(0.044000 -0.044000)" fill="#1A255D"/>
    <path d="M376 307Q376 360 344 385.5Q312 411 259 411Q219 411 183.5 395.5Q148 380 124 356L74 416Q109 449 159.5 468Q210 487 268 487Q319 487 356.5 472.5Q394 458 418 433Q442 408 454 374Q466 340 466 301L466 94Q466 70 467.5 43.5Q469 17 473 0L388 0Q380 34 380 68L377 68Q351 30 311.5 9Q272 -12 218 -12Q190 -12 159.5 -4.5Q129 3 104 20Q79 37 62.5 65Q46 93 46 134Q46 188 75 219.5Q104 251 151 267.5Q198 284 257 289Q316 294 376 294ZM353 226Q318 226 280.5 223Q243 220 212.5 211Q182 202 162 184Q142 166 142 136Q142 115 150.5 101Q159 87 173 78Q187 69 204 65.5Q221 62 239 62Q305 62 340.5 101.5Q376 141 376 201L376 226Z" transform="translate(427.04 270.00) scale(0.044000 -0.044000)" fill="#1A255D"/>
    <path d="M376 307Q376 360 344 385.5Q312 411 259 411Q219 411 183.5 395.5Q148 380 124 356L74 416Q109 449 159.5 468Q210 487 268 487Q319 487 356.5 472.5Q394 458 418 433Q442 408 454 374Q466 340 466 301L466 94Q466 70 467.5 43.5Q469 17 473 0L388 0Q380 34 380 68L377 68Q351 30 311.5 9Q272 -12 218 -12Q190 -12 159.5 -4.5Q129 3 104 20Q79 37 62.5 65Q46 93 46 134Q46 188 75 219.5Q104 251 151 267.5Q198 284 257 289Q316 294 376 294ZM353 226Q318 226 280.5 223Q243 220 212.5 211Q182 202 162 184Q142 166 142 136Q142 115 150.5 101Q159 87 173 78Q187 69 204 65.5Q221 62 239 62Q305 62 340.5 101.5Q376 141 376 201L376 226Z" transform="translate(450.88 270.00) scale(0.044000 -0.044000)" fill="#1A255D"/>
    <path d="M438 577Q417 606 381 624.5Q345 643 300 643Q276 643 251.5 636.5Q227 630 207 615.5Q187 601 174.5 579.5Q162 558 162 528Q162 499 173.5 479.5Q185 460 204.5 446.5Q224 433 250.5 423.5Q277 414 307 404Q343 393 380 379Q417 365 447 342Q477 319 496 284.5Q515 250 515 197Q515 142 494.5 101.5Q474 61 440 34.5Q406 8 361.5 -5Q317 -18 270 -18Q203 -18 140.5 8Q78 34 37 85L114 150Q139 113 181 90Q223 67 272 67Q297 67 322 74Q347 81 367.5 96Q388 111 401 133.5Q414 156 414 188Q414 220 400.5 241.5Q387 263 364 278Q341 293 310.5 303.5Q280 314 246 325Q212 335 179 349.5Q146 364 120 386.5Q94 409 78 442Q62 475 62 524Q62 577 83.5 615Q105 653 139.5 678Q174 703 217.5 714.5Q261 726 305 726Q367 726 421 704Q475 682 508 645Z" transform="translate(474.73 270.00) scale(0.044000 -0.044000)" fill="#1A255D"/>
    <path d="M304 397L194 397L194 0L100 0L100 397L6 397L6 474L100 474L100 573Q100 615 109.5 650.5Q119 686 140.5 712Q162 738 195.5 753Q229 768 277 768Q311 768 336 761L325 680Q314 683 303 685Q292 687 278 687Q251 687 234.5 677.5Q218 668 209 652Q200 636 197 615.5Q194 595 194 573L194 474L304 474Z" transform="translate(510.77 270.00) scale(0.044000 -0.044000)" fill="#1A255D"/>
    <path d="M561 238Q561 183 541.5 137Q522 91 487.5 57.5Q453 24 406 5.5Q359 -13 305 -13Q251 -13 204 5.5Q157 24 123 57.5Q89 91 69.5 137Q50 183 50 238Q50 293 69.5 338.5Q89 384 123 417Q157 450 204 468.5Q251 487 305 487Q359 487 406 468.5Q453 450 487.5 417Q522 384 541.5 338.5Q561 293 561 238ZM463 238Q463 272 452.5 303Q442 334 422 357.5Q402 381 372.5 395Q343 409 305 409Q267 409 237.5 395Q208 381 188 357.5Q168 334 157.5 303Q147 272 147 238Q147 204 157.5 173Q168 142 188 118Q208 94 237.5 80Q267 66 305 66Q343 66 372.5 80Q402 94 422 118Q442 142 452.5 173Q463 204 463 238Z" transform="translate(524.41 270.00) scale(0.044000 -0.044000)" fill="#1A255D"/>
    <path d="M81 372Q81 391 80 421Q79 451 77 474L166 474Q168 456 169 432.5Q170 409 170 394L173 394Q193 436 231.5 461.5Q270 487 318 487Q340 487 355 483L351 396Q331 401 308 401Q274 401 249 388.5Q224 376 207.5 355Q191 334 183 306.5Q175 279 175 249L175 0L81 0L81 372Z" transform="translate(551.25 270.00) scale(0.044000 -0.044000)" fill="#1A255D"/>
    <path d="M438 577Q417 606 381 624.5Q345 643 300 643Q276 643 251.5 636.5Q227 630 207 615.5Q187 601 174.5 579.5Q162 558 162 528Q162 499 173.5 479.5Q185 460 204.5 446.5Q224 433 250.5 423.5Q277 414 307 404Q343 393 380 379Q417 365 447 342Q477 319 496 284.5Q515 250 515 197Q515 142 494.5 101.5Q474 61 440 34.5Q406 8 361.5 -5Q317 -18 270 -18Q203 -18 140.5 8Q78 34 37 85L114 150Q139 113 181 90Q223 67 272 67Q297 67 322 74Q347 81 367.5 96Q388 111 401 133.5Q414 156 414 188Q414 220 400.5 241.5Q387 263 364 278Q341 293 310.5 303.5Q280 314 246 325Q212 335 179 349.5Q146 364 120 386.5Q94 409 78 442Q62 475 62 524Q62 577 83.5 615Q105 653 139.5 678Q174 703 217.5 714.5Q261 726 305 726Q367 726 421 704Q475 682 508 645Z" transform="translate(578.18 270.00) scale(0.044000 -0.044000)" fill="#1A255D"/>
    <path d="M452 164L454 164L663 708L817 708L817 0L718 0L718 592L716 592L481 0L418 0L184 592L182 592L182 0L86 0L86 708L240 708Z" transform="translate(603.21 270.00) scale(0.044000 -0.044000)" fill="#1A255D"/>
    <path d="M86 708L330 708Q370 708 410 699Q450 690 481.5 669Q513 648 532.5 614Q552 580 552 529Q552 470 518 430Q484 390 428 375L428 373Q462 369 491 355.5Q520 342 541 320Q562 298 573.5 268Q585 238 585 201Q585 150 564 112Q543 74 507 49.5Q471 25 422.5 12.5Q374 0 319 0L86 0ZM185 409L314 409Q342 409 367.5 415.5Q393 422 412 435.5Q431 449 442 469.5Q453 490 453 519Q453 576 411 600.5Q369 625 298 625L185 625ZM185 84L309 84Q340 84 371.5 89.5Q403 95 428.5 109Q454 123 469.5 146.5Q485 170 485 206Q485 269 442 297Q399 325 318 325L185 325Z" transform="translate(642.94 270.00) scale(0.044000 -0.044000)" fill="#1A255D"/>
    <path d="M800 355Q800 273 771.5 204.5Q743 136 693 86.5Q643 37 574 9.5Q505 -18 424 -18Q343 -18 274.5 9.5Q206 37 156 86.5Q106 136 78 204.5Q50 273 50 355Q50 438 78 506.5Q106 575 156 623.5Q206 672 274.5 699Q343 726 424 726Q505 726 574 699Q643 672 693 623.5Q743 575 771.5 506.5Q800 438 800 355ZM693 355Q693 413 674 464.5Q655 516 620 555Q585 594 535.5 616.5Q486 639 424 639Q363 639 313.5 616.5Q264 594 229.5 555Q195 516 176 464.5Q157 413 157 355Q157 296 176 244Q195 192 230 153.5Q265 115 314 93Q363 71 424 71Q485 71 535 93Q585 115 620 153.5Q655 192 674 244Q693 296 693 355Z" transform="translate(682.19 270.00) scale(0.044000 -0.044000)" fill="#1A255D"/>
    <path d="M175 -240L81 -240L81 474L173 474L173 400L176 400Q199 438 243.5 462.5Q288 487 347 487Q400 487 443.5 468Q487 449 518.5 415Q550 381 567 335.5Q584 290 584 238Q584 186 567 140Q550 94 519 60Q488 26 444 6.5Q400 -13 345 -13Q294 -13 249 9Q204 31 178 71L175 71ZM487 238Q487 271 477 302Q467 333 447 357Q427 381 397.5 395Q368 409 329 409Q293 409 263.5 395Q234 381 213 357Q192 333 180.5 302Q169 271 169 237Q169 203 180.5 172Q192 141 213 117.5Q234 94 263.5 80Q293 66 329 66Q368 66 397.5 80.5Q427 95 447 119Q467 143 477 174Q487 205 487 238Z" transform="translate(719.55 270.00) scale(0.044000 -0.044000)" fill="#1A255D"/>
    <path d="M428 279Q427 307 418.5 331.5Q410 356 393.5 374Q377 392 352.5 402.5Q328 413 295 413Q265 413 238.5 402.5Q212 392 192.5 374Q173 356 160.5 331.5Q148 307 146 279ZM523 241Q523 233 523 225Q523 217 522 209L146 209Q147 179 159.5 152.5Q172 126 193 106.5Q214 87 241.5 76Q269 65 300 65Q348 65 383 86Q418 107 438 137L504 84Q466 34 414.5 10.5Q363 -13 300 -13Q246 -13 200 5Q154 23 121 55.5Q88 88 69 134Q50 180 50 236Q50 291 68.5 337.5Q87 384 120 417Q153 450 198 468.5Q243 487 295 487Q347 487 389.5 470Q432 453 461.5 421Q491 389 507 343.5Q523 298 523 241Z" transform="translate(747.44 270.00) scale(0.044000 -0.044000)" fill="#1A255D"/>
    <path d="M81 372Q81 391 80 421Q79 451 77 474L166 474Q168 456 169 432.5Q170 409 170 394L173 394Q193 436 231.5 461.5Q270 487 318 487Q340 487 355 483L351 396Q331 401 308 401Q274 401 249 388.5Q224 376 207.5 355Q191 334 183 306.5Q175 279 175 249L175 0L81 0L81 372Z" transform="translate(772.66 270.00) scale(0.044000 -0.044000)" fill="#1A255D"/>
    <path d="M376 307Q376 360 344 385.5Q312 411 259 411Q219 411 183.5 395.5Q148 380 124 356L74 416Q109 449 159.5 468Q210 487 268 487Q319 487 356.5 472.5Q394 458 418 433Q442 408 454 374Q466 340 466 301L466 94Q466 70 467.5 43.5Q469 17 473 0L388 0Q380 34 380 68L377 68Q351 30 311.5 9Q272 -12 218 -12Q190 -12 159.5 -4.5Q129 3 104 20Q79 37 62.5 65Q46 93 46 134Q46 188 75 219.5Q104 251 151 267.5Q198 284 257 289Q316 294 376 294ZM353 226Q318 226 280.5 223Q243 220 212.5 211Q182 202 162 184Q142 166 142 136Q142 115 150.5 101Q159 87 173 78Q187 69 204 65.5Q221 62 239 62Q305 62 340.5 101.5Q376 141 376 201L376 226Z" transform="translate(788.01 270.00) scale(0.044000 -0.044000)" fill="#1A255D"/>
    <path d="M313 397L187 397L187 150Q187 107 203 88.5Q219 70 254 70Q267 70 282 73Q297 76 309 82L312 5Q295 -1 274.5 -4.5Q254 -8 232 -8Q165 -8 129.5 29Q94 66 94 140L94 397L3 397L3 474L94 474L94 610L187 610L187 474L313 474Z" transform="translate(811.42 270.00) scale(0.044000 -0.044000)" fill="#1A255D"/>
    <path d="M176 0L82 0L82 474L176 474ZM192 645Q192 619 173.5 602Q155 585 129 585Q103 585 85 602.5Q67 620 67 645Q67 671 85 688.5Q103 706 129 706Q155 706 173.5 688.5Q192 671 192 645Z" transform="translate(825.90 270.00) scale(0.044000 -0.044000)" fill="#1A255D"/>
    <path d="M561 238Q561 183 541.5 137Q522 91 487.5 57.5Q453 24 406 5.5Q359 -13 305 -13Q251 -13 204 5.5Q157 24 123 57.5Q89 91 69.5 137Q50 183 50 238Q50 293 69.5 338.5Q89 384 123 417Q157 450 204 468.5Q251 487 305 487Q359 487 406 468.5Q453 450 487.5 417Q522 384 541.5 338.5Q561 293 561 238ZM463 238Q463 272 452.5 303Q442 334 422 357.5Q402 381 372.5 395Q343 409 305 409Q267 409 237.5 395Q208 381 188 357.5Q168 334 157.5 303Q147 272 147 238Q147 204 157.5 173Q168 142 188 118Q208 94 237.5 80Q267 66 305 66Q343 66 372.5 80Q402 94 422 118Q442 142 452.5 173Q463 204 463 238Z" transform="translate(837.29 270.00) scale(0.044000 -0.044000)" fill="#1A255D"/>
    <path d="M166 474Q168 456 169 433.5Q170 411 170 396L173 396Q182 415 197.5 431.5Q213 448 233 460.5Q253 473 277 480Q301 487 327 487Q373 487 406 471.5Q439 456 461 430Q483 404 493.5 369Q504 334 504 294L504 0L410 0L410 263Q410 292 405.5 318Q401 344 389 364Q377 384 356 396Q335 408 302 408Q246 408 210.5 365.5Q175 323 175 252L175 0L81 0L81 372Q81 391 80 421Q79 451 77 474Z" transform="translate(864.13 270.00) scale(0.044000 -0.044000)" fill="#1A255D"/>
    <path d="M337 354Q321 380 292 396.5Q263 413 227 413Q211 413 195 409.5Q179 406 166.5 398.5Q154 391 146.5 379.5Q139 368 139 351Q139 321 166 306.5Q193 292 247 280Q281 272 310 261Q339 250 360.5 233.5Q382 217 394 194Q406 171 406 140Q406 98 390 69Q374 40 347.5 21.5Q321 3 287 -5Q253 -13 217 -13Q163 -13 111.5 8Q60 29 26 72L93 129Q112 101 145.5 82Q179 63 219 63Q237 63 253.5 66.5Q270 70 283.5 78Q297 86 305 99Q313 112 313 132Q313 165 281.5 181Q250 197 189 211Q165 217 140.5 225.5Q116 234 96 249Q76 264 63.5 286.5Q51 309 51 342Q51 380 66.5 407.5Q82 435 107 452.5Q132 470 164 478.5Q196 487 230 487Q281 487 328.5 467Q376 447 402 409Z" transform="translate(889.74 270.00) scale(0.044000 -0.044000)" fill="#1A255D"/>
    <path d="M452 164L454 164L663 708L817 708L817 0L718 0L718 592L716 592L481 0L418 0L184 592L182 592L182 0L86 0L86 708L240 708Z" transform="translate(920.28 270.00) scale(0.044000 -0.044000)" fill="#1A255D"/>
    <path d="M376 307Q376 360 344 385.5Q312 411 259 411Q219 411 183.5 395.5Q148 380 124 356L74 416Q109 449 159.5 468Q210 487 268 487Q319 487 356.5 472.5Q394 458 418 433Q442 408 454 374Q466 340 466 301L466 94Q466 70 467.5 43.5Q469 17 473 0L388 0Q380 34 380 68L377 68Q351 30 311.5 9Q272 -12 218 -12Q190 -12 159.5 -4.5Q129 3 104 20Q79 37 62.5 65Q46 93 46 134Q46 188 75 219.5Q104 251 151 267.5Q198 284 257 289Q316 294 376 294ZM353 226Q318 226 280.5 223Q243 220 212.5 211Q182 202 162 184Q142 166 142 136Q142 115 150.5 101Q159 87 173 78Q187 69 204 65.5Q221 62 239 62Q305 62 340.5 101.5Q376 141 376 201L376 226Z" transform="translate(960.01 270.00) scale(0.044000 -0.044000)" fill="#1A255D"/>
    <path d="M166 474Q168 456 169 433.5Q170 411 170 396L173 396Q182 415 197.5 431.5Q213 448 233 460.5Q253 473 277 480Q301 487 327 487Q373 487 406 471.5Q439 456 461 430Q483 404 493.5 369Q504 334 504 294L504 0L410 0L410 263Q410 292 405.5 318Q401 344 389 364Q377 384 356 396Q335 408 302 408Q246 408 210.5 365.5Q175 323 175 252L175 0L81 0L81 372Q81 391 80 421Q79 451 77 474Z" transform="translate(983.86 270.00) scale(0.044000 -0.044000)" fill="#1A255D"/>
    <path d="M376 307Q376 360 344 385.5Q312 411 259 411Q219 411 183.5 395.5Q148 380 124 356L74 416Q109 449 159.5 468Q210 487 268 487Q319 487 356.5 472.5Q394 458 418 433Q442 408 454 374Q466 340 466 301L466 94Q466 70 467.5 43.5Q469 17 473 0L388 0Q380 34 380 68L377 68Q351 30 311.5 9Q272 -12 218 -12Q190 -12 159.5 -4.5Q129 3 104 20Q79 37 62.5 65Q46 93 46 134Q46 188 75 219.5Q104 251 151 267.5Q198 284 257 289Q316 294 376 294ZM353 226Q318 226 280.5 223Q243 220 212.5 211Q182 202 162 184Q142 166 142 136Q142 115 150.5 101Q159 87 173 78Q187 69 204 65.5Q221 62 239 62Q305 62 340.5 101.5Q376 141 376 201L376 226Z" transform="translate(1009.46 270.00) scale(0.044000 -0.044000)" fill="#1A255D"/>
    <path d="M118 -81Q149 -116 195.5 -137Q242 -158 291 -158Q338 -158 370 -144.5Q402 -131 421.5 -107.5Q441 -84 449.5 -52Q458 -20 458 17L458 78L456 78Q430 38 385 17Q340 -4 289 -4Q235 -4 190.5 15Q146 34 115 67Q84 100 67 144.5Q50 189 50 240Q50 291 67 336Q84 381 115 414.5Q146 448 190 467.5Q234 487 288 487Q339 487 385.5 465Q432 443 459 398L461 398L461 474L552 474L552 24Q552 -28 539 -75.5Q526 -123 495 -159.5Q464 -196 414 -218Q364 -240 290 -240Q228 -240 165.5 -217.5Q103 -195 58 -154ZM147 242Q147 209 157.5 179Q168 149 188.5 126Q209 103 238 89Q267 75 304 75Q340 75 370 88Q400 101 421 123.5Q442 146 453.5 176.5Q465 207 465 242Q465 276 453.5 306Q442 336 420.5 359Q399 382 369.5 395.5Q340 409 304 409Q267 409 238 395.5Q209 382 188.5 359.5Q168 337 157.5 306.5Q147 276 147 242Z" transform="translate(1033.31 270.00) scale(0.044000 -0.044000)" fill="#1A255D"/>
    <path d="M428 279Q427 307 418.5 331.5Q410 356 393.5 374Q377 392 352.5 402.5Q328 413 295 413Q265 413 238.5 402.5Q212 392 192.5 374Q173 356 160.5 331.5Q148 307 146 279ZM523 241Q523 233 523 225Q523 217 522 209L146 209Q147 179 159.5 152.5Q172 126 193 106.5Q214 87 241.5 76Q269 65 300 65Q348 65 383 86Q418 107 438 137L504 84Q466 34 414.5 10.5Q363 -13 300 -13Q246 -13 200 5Q154 23 121 55.5Q88 88 69 134Q50 180 50 236Q50 291 68.5 337.5Q87 384 120 417Q153 450 198 468.5Q243 487 295 487Q347 487 389.5 470Q432 453 461.5 421Q491 389 507 343.5Q523 298 523 241Z" transform="translate(1061.12 270.00) scale(0.044000 -0.044000)" fill="#1A255D"/>
    <path d="M173 396Q191 434 230.5 460.5Q270 487 324 487Q372 487 410.5 465Q449 443 471 392Q495 438 538 462.5Q581 487 632 487Q678 487 711 471.5Q744 456 766 430Q788 404 798.5 369Q809 334 809 294L809 0L715 0L715 263Q715 292 710 318Q705 344 693 364Q681 384 661 396Q641 408 610 408Q578 408 555 394.5Q532 381 517.5 359.5Q503 338 496.5 311Q490 284 490 256L490 0L396 0L396 282Q396 310 391 333Q386 356 374 372.5Q362 389 343 398.5Q324 408 296 408Q244 408 209.5 365.5Q175 323 175 252L175 0L81 0L81 372Q81 391 80 421Q79 451 77 474L166 474Q168 456 169 433.5Q170 411 170 396L173 396Z" transform="translate(1086.33 270.00) scale(0.044000 -0.044000)" fill="#1A255D"/>
    <path d="M428 279Q427 307 418.5 331.5Q410 356 393.5 374Q377 392 352.5 402.5Q328 413 295 413Q265 413 238.5 402.5Q212 392 192.5 374Q173 356 160.5 331.5Q148 307 146 279ZM523 241Q523 233 523 225Q523 217 522 209L146 209Q147 179 159.5 152.5Q172 126 193 106.5Q214 87 241.5 76Q269 65 300 65Q348 65 383 86Q418 107 438 137L504 84Q466 34 414.5 10.5Q363 -13 300 -13Q246 -13 200 5Q154 23 121 55.5Q88 88 69 134Q50 180 50 236Q50 291 68.5 337.5Q87 384 120 417Q153 450 198 468.5Q243 487 295 487Q347 487 389.5 470Q432 453 461.5 421Q491 389 507 343.5Q523 298 523 241Z" transform="translate(1125.36 270.00) scale(0.044000 -0.044000)" fill="#1A255D"/>
    <path d="M166 474Q168 456 169 433.5Q170 411 170 396L173 396Q182 415 197.5 431.5Q213 448 233 460.5Q253 473 277 480Q301 487 327 487Q373 487 406 471.5Q439 456 461 430Q483 404 493.5 369Q504 334 504 294L504 0L410 0L410 263Q410 292 405.5 318Q401 344 389 364Q377 384 356 396Q335 408 302 408Q246 408 210.5 365.5Q175 323 175 252L175 0L81 0L81 372Q81 391 80 421Q79 451 77 474Z" transform="translate(1150.57 270.00) scale(0.044000 -0.044000)" fill="#1A255D"/>
    <path d="M313 397L187 397L187 150Q187 107 203 88.5Q219 70 254 70Q267 70 282 73Q297 76 309 82L312 5Q295 -1 274.5 -4.5Q254 -8 232 -8Q165 -8 129.5 29Q94 66 94 140L94 397L3 397L3 474L94 474L94 610L187 610L187 474L313 474Z" transform="translate(1176.18 270.00) scale(0.044000 -0.044000)" fill="#1A255D"/>
  </g>
</svg>
